<svg width="16" height="16" viewBox="0 0 16 16" fill="none" xmlns="http://www.w3.org/2000/svg">
<g clip-path="url(#clip0_3421_4121)">
<mask id="mask0_3421_4121" style="mask-type:luminance" maskUnits="userSpaceOnUse" x="0" y="0" width="16" height="16">
<path d="M16 0H0V16H16V0Z" fill="white"/>
</mask>
<g mask="url(#mask0_3421_4121)">
<path d="M11 6.76364C10.2049 6.76364 9.47663 6.87942 8.92791 7.07208C9.12057 6.52338 9.23634 5.79513 9.23634 5C9.23634 4.16266 9.10796 3.40011 8.89704 2.84326C8.79171 2.56519 8.66386 2.33324 8.51682 2.16904C8.36982 2.0049 8.19537 1.9 8 1.9C7.80463 1.9 7.63018 2.0049 7.48318 2.16904C7.33613 2.33324 7.20828 2.56519 7.10295 2.84326C6.89202 3.40011 6.76364 4.16266 6.76364 5C6.76364 5.79512 6.87942 6.52338 7.07208 7.07208C6.52338 6.87942 5.79512 6.76364 5 6.76364C4.16266 6.76364 3.40011 6.89202 2.84326 7.10295C2.56519 7.20828 2.33324 7.33613 2.16904 7.48318C2.0049 7.63018 1.9 7.80463 1.9 8C1.9 8.19537 2.0049 8.36982 2.16904 8.51682C2.33324 8.66386 2.56519 8.79171 2.84326 8.89704C3.40011 9.10796 4.16266 9.23634 5 9.23634C5.79513 9.23634 6.52338 9.12057 7.07208 8.92791C6.87942 9.47663 6.76364 10.2049 6.76364 11C6.76364 11.8373 6.89202 12.5999 7.10295 13.1567C7.20828 13.4348 7.33613 13.6668 7.48318 13.831C7.63018 13.9951 7.80463 14.1 8 14.1C8.19537 14.1 8.36982 13.9951 8.51682 13.831C8.66386 13.6668 8.79171 13.4348 8.89704 13.1567C9.10796 12.5999 9.23634 11.8373 9.23634 11C9.23634 10.2049 9.12056 9.47662 8.9279 8.9279C9.47662 9.12057 10.2049 9.23634 11 9.23634C11.8373 9.23634 12.5999 9.10796 13.1567 8.89704C13.4348 8.79171 13.6668 8.66386 13.831 8.51682C13.9951 8.36982 14.1 8.19537 14.1 8C14.1 7.80463 13.9951 7.63018 13.831 7.48318C13.6668 7.33613 13.4348 7.20828 13.1567 7.10295C12.5999 6.89202 11.8373 6.76364 11 6.76364Z" fill="#B3B3E1" stroke="#B3B3E1" stroke-width="0.2"/>
</g>
</g>
<defs>
<clipPath id="clip0_3421_4121">
<rect width="16" height="16" fill="white"/>
</clipPath>
</defs>
</svg>
