<svg width="16" height="16" viewBox="0 0 16 16" fill="none" xmlns="http://www.w3.org/2000/svg">
<g clip-path="url(#clip0_1_302)">
<rect width="16" height="16" fill="white"/>
<path d="M4.43792 12C2.72325 12 1.33325 10.662 1.33325 9.01134C1.33325 7.36134 2.72325 6.02334 4.43792 6.02334C4.69992 4.84867 5.63392 3.89 6.88792 3.508C8.14125 3.12667 9.52525 3.37934 10.5173 4.17467C11.5093 4.968 11.9586 6.17934 11.6973 7.354H12.3573C13.6326 7.354 14.6666 8.394 14.6666 9.678C14.6666 10.9627 13.6326 12.0027 12.3566 12.0027H4.43792" fill="#58B2CB"/>
<path d="M4.43792 12C2.72325 12 1.33325 10.662 1.33325 9.01134C1.33325 7.36134 2.72325 6.02334 4.43792 6.02334C4.69992 4.84867 5.63392 3.89 6.88792 3.508C8.14125 3.12667 9.52525 3.37934 10.5173 4.17467C11.5093 4.968 11.9586 6.17934 11.6973 7.354H12.3573C13.6326 7.354 14.6666 8.394 14.6666 9.678C14.6666 10.9627 13.6326 12.0027 12.3566 12.0027H4.43792" stroke="#58B2CB" stroke-width="1.25" stroke-linecap="round" stroke-linejoin="round"/>
</g>
<defs>
<clipPath id="clip0_1_302">
<rect width="16" height="16" fill="white"/>
</clipPath>
</defs>
</svg>
