<svg width="16" height="16" viewBox="0 0 16 16" fill="none" xmlns="http://www.w3.org/2000/svg">
<g clip-path="url(#clip0_1_282)">
<path d="M2.66675 3.33333C2.66675 3.15652 2.73699 2.98695 2.86201 2.86193C2.98703 2.7369 3.1566 2.66667 3.33341 2.66667H6.00008C6.17689 2.66667 6.34646 2.7369 6.47149 2.86193C6.59651 2.98695 6.66675 3.15652 6.66675 3.33333V6C6.66675 6.17681 6.59651 6.34638 6.47149 6.4714C6.34646 6.59643 6.17689 6.66667 6.00008 6.66667H3.33341C3.1566 6.66667 2.98703 6.59643 2.86201 6.4714C2.73699 6.34638 2.66675 6.17681 2.66675 6V3.33333Z" stroke="#94989E" stroke-width="1.25" stroke-linecap="round" stroke-linejoin="round"/>
<path d="M9.33325 3.33333C9.33325 3.15652 9.40349 2.98695 9.52851 2.86193C9.65354 2.7369 9.82311 2.66667 9.99992 2.66667H12.6666C12.8434 2.66667 13.013 2.7369 13.138 2.86193C13.263 2.98695 13.3333 3.15652 13.3333 3.33333V6C13.3333 6.17681 13.263 6.34638 13.138 6.4714C13.013 6.59643 12.8434 6.66667 12.6666 6.66667H9.99992C9.82311 6.66667 9.65354 6.59643 9.52851 6.4714C9.40349 6.34638 9.33325 6.17681 9.33325 6V3.33333Z" stroke="#94989E" stroke-width="1.25" stroke-linecap="round" stroke-linejoin="round"/>
<path d="M2.66675 10C2.66675 9.82319 2.73699 9.65362 2.86201 9.52859C2.98703 9.40357 3.1566 9.33333 3.33341 9.33333H6.00008C6.17689 9.33333 6.34646 9.40357 6.47149 9.52859C6.59651 9.65362 6.66675 9.82319 6.66675 10V12.6667C6.66675 12.8435 6.59651 13.013 6.47149 13.1381C6.34646 13.2631 6.17689 13.3333 6.00008 13.3333H3.33341C3.1566 13.3333 2.98703 13.2631 2.86201 13.1381C2.73699 13.013 2.66675 12.8435 2.66675 12.6667V10Z" stroke="#94989E" stroke-width="1.25" stroke-linecap="round" stroke-linejoin="round"/>
<path d="M9.33325 10C9.33325 9.82319 9.40349 9.65362 9.52851 9.52859C9.65354 9.40357 9.82311 9.33333 9.99992 9.33333H12.6666C12.8434 9.33333 13.013 9.40357 13.138 9.52859C13.263 9.65362 13.3333 9.82319 13.3333 10V12.6667C13.3333 12.8435 13.263 13.013 13.138 13.1381C13.013 13.2631 12.8434 13.3333 12.6666 13.3333H9.99992C9.82311 13.3333 9.65354 13.2631 9.52851 13.1381C9.40349 13.013 9.33325 12.8435 9.33325 12.6667V10Z" stroke="#94989E" stroke-width="1.25" stroke-linecap="round" stroke-linejoin="round"/>
</g>
<defs>
<clipPath id="clip0_1_282">
<rect width="16" height="16" fill="white"/>
</clipPath>
</defs>
</svg>
